SplineFontDB: 3.0
FontName: Spyder
FullName: Spyder
FamilyName: Spyder
Weight: Book
Copyright: Copyright (c) 2015, sylvain,,,
Version: 001.000
ItalicAngle: 0
UnderlinePosition: 0
UnderlineWidth: 0
Ascent: 1536
Descent: 256
LayerCount: 2
Layer: 0 1 "Back"  1
Layer: 1 1 "Fore"  0
XUID: [1021 912 -309187915 8800720]
FSType: 4
OS2Version: 3
OS2_WeightWidthSlopeOnly: 0
OS2_UseTypoMetrics: 1
CreationTime: 1428196570
ModificationTime: 1455075095
PfmFamily: 81
TTFWeight: 400
TTFWidth: 5
LineGap: 161
VLineGap: 161
OS2TypoAscent: 0
OS2TypoAOffset: 1
OS2TypoDescent: 0
OS2TypoDOffset: 1
OS2TypoLinegap: 161
OS2WinAscent: 0
OS2WinAOffset: 1
OS2WinDescent: 0
OS2WinDOffset: 1
HheadAscent: 0
HheadAOffset: 1
HheadDescent: 0
HheadDOffset: 1
OS2Vendor: 'PfEd'
MarkAttachClasses: 1
DEI: 91125
LangName: 1033 
GaspTable: 1 65535 0 0
Encoding: UnicodeFull
UnicodeInterp: none
NameList: Adobe Glyph List
DisplaySize: -48
AntiAlias: 1
FitToEm: 1
WinInfo: 57267 27 9
BeginPrivate: 0
EndPrivate
TeXData: 1 0 0 262144 131072 87381 0 1048576 87381 783286 444596 497025 792723 393216 433062 380633 303038 157286 324010 404750 52429 2506097 1059062 262144
BeginChars: 1114112 45

StartChar: uniE000
Encoding: 57344 57344 0
Width: 1664
Flags: W
LayerCount: 2
Fore
SplineSet
45 -115 m 2,0,1
 26 -134 26 -134 13 -128 c 128,-1,2
 0 -122 0 -122 0 -96 c 2,3,-1
 0 1376 l 2,4,5
 0 1402 0 1402 13 1408 c 128,-1,6
 26 1414 26 1414 45 1395 c 2,7,-1
 755 685 l 2,8,9
 764 676 764 676 768 666 c 1,10,-1
 768 1376 l 2,11,12
 768 1402 768 1402 781 1408 c 128,-1,13
 794 1414 794 1414 813 1395 c 2,14,-1
 1523 685 l 2,15,16
 1542 666 1542 666 1542 640 c 128,-1,17
 1542 614 1542 614 1523 595 c 2,18,-1
 813 -115 l 2,19,20
 794 -134 794 -134 781 -128 c 128,-1,21
 768 -122 768 -122 768 -96 c 2,22,-1
 768 614 l 1,23,24
 765 607 765 607 755 595 c 1,25,-1
 45 -115 l 2,0,1
EndSplineSet
Validated: 1
EndChar

StartChar: uniE009
Encoding: 57353 57353 1
Width: 1536
Flags: W
HStem: -128 1536<19.6108 1516.39>
VStem: 0 1536<-108.389 1388.39>
LayerCount: 2
Fore
SplineSet
1536 1344 m 2,0,-1
 1536 -64 l 2,1,2
 1536 -90 1536 -90 1517 -109 c 128,-1,3
 1498 -128 1498 -128 1472 -128 c 2,4,-1
 64 -128 l 2,5,6
 38 -128 38 -128 19 -109 c 128,-1,7
 0 -90 0 -90 0 -64 c 2,8,-1
 0 1344 l 2,9,10
 0 1370 0 1370 19 1389 c 128,-1,11
 38 1408 38 1408 64 1408 c 2,12,-1
 1472 1408 l 2,13,14
 1498 1408 1498 1408 1517 1389 c 128,-1,15
 1536 1370 1536 1370 1536 1344 c 2,0,-1
EndSplineSet
Validated: 1
EndChar

StartChar: uniE00A
Encoding: 57354 57354 2
Width: 1792
VWidth: 0
HStem: -128 128<256 1536> 128 128<384 1408> 384 128<384 1408> 640 128<384 1408> 896 128<256 1536>
VStem: 128 128<0 896> 1536 128<0 896>
LayerCount: 2
Fore
SplineSet
256 1024 m 2,0,-1
 1536 1024 l 2,1,2
 1588 1024 1588 1024 1626 986 c 128,-1,3
 1664 948 1664 948 1664 896 c 2,4,-1
 1664 0 l 2,5,6
 1664 -52 1664 -52 1626 -90 c 128,-1,7
 1588 -128 1588 -128 1536 -128 c 2,8,-1
 256 -128 l 2,9,10
 204 -128 204 -128 166 -90 c 128,-1,11
 128 -52 128 -52 128 0 c 2,12,-1
 128 896 l 2,13,14
 128 948 128 948 166 986 c 128,-1,15
 204 1024 204 1024 256 1024 c 2,0,-1
256 896 m 1,16,-1
 256 0 l 1,17,-1
 1536 0 l 1,18,-1
 1536 896 l 1,19,-1
 256 896 l 1,16,-1
384 768 m 1,20,-1
 1408 768 l 1,21,-1
 1408 640 l 1,22,-1
 384 640 l 1,23,-1
 384 768 l 1,20,-1
384 512 m 1,24,-1
 1408 512 l 1,25,-1
 1408 384 l 1,26,-1
 384 384 l 1,27,-1
 384 512 l 1,24,-1
384 256 m 1,28,-1
 1408 256 l 1,29,-1
 1408 128 l 1,30,-1
 384 128 l 1,31,-1
 384 256 l 1,28,-1
EndSplineSet
Validated: 1
EndChar

StartChar: uniE00B
Encoding: 57355 57355 3
Width: 1792
VWidth: 0
Flags: W
HStem: -256 256<256 1536> 768 256<256 384 1056 1152 1408 1536>
VStem: 0 256<0 768> 1152 256<147.611 768 1024 1644.39> 1536 256<0 768>
LayerCount: 2
Fore
SplineSet
404 1665 m 1,0,1
 415 1665 415 1665 429 1651 c 2,2,-1
 1056 1024 l 1,3,-1
 1152 1024 l 1,4,-1
 1152 1600 l 2,5,6
 1152 1626 1152 1626 1171 1645 c 128,-1,7
 1190 1664 1190 1664 1216 1664 c 2,8,-1
 1344 1664 l 2,9,10
 1370 1664 1370 1664 1389 1645 c 128,-1,11
 1408 1626 1408 1626 1408 1600 c 2,12,-1
 1408 1024 l 1,13,-1
 1600 1024 l 2,14,15
 1678 1024 1678 1024 1735 967 c 128,-1,16
 1792 910 1792 910 1792 832 c 2,17,-1
 1792 -64 l 2,18,19
 1792 -142 1792 -142 1735 -199 c 128,-1,20
 1678 -256 1678 -256 1600 -256 c 2,21,-1
 192 -256 l 2,22,23
 114 -256 114 -256 57 -199 c 128,-1,24
 0 -142 0 -142 0 -64 c 2,25,-1
 0 832 l 2,26,27
 0 910 0 910 57 967 c 128,-1,28
 114 1024 114 1024 192 1024 c 2,29,-1
 384 1024 l 1,30,-1
 384 1632 l 2,31,32
 384 1655 384 1655 397 1664 c 0,33,34
 401 1666 401 1666 404 1665 c 1,0,1
256 768 m 1,35,-1
 256 0 l 1,36,-1
 1536 0 l 1,37,-1
 1536 768 l 1,38,-1
 1408 768 l 1,39,-1
 1408 192 l 2,40,41
 1408 166 1408 166 1389 147 c 128,-1,42
 1370 128 1370 128 1344 128 c 2,43,-1
 1216 128 l 2,44,45
 1190 128 1190 128 1171 147 c 128,-1,46
 1152 166 1152 166 1152 192 c 2,47,-1
 1152 768 l 1,48,-1
 1056 768 l 1,49,-1
 429 141 l 2,50,51
 410 122 410 122 397 128 c 128,-1,52
 384 134 384 134 384 160 c 2,53,-1
 384 768 l 1,54,-1
 256 768 l 1,35,-1
EndSplineSet
Validated: 1
EndChar

StartChar: uniE00C
Encoding: 57356 57356 4
Width: 1792
VStem: 1152 256<46.6108 769 821 1558.08>
LayerCount: 2
Fore
SplineSet
429 40 m 1,0,1
 409 22 409 22 397 27 c 0,2,3
 384 33 384 33 384 59 c 2,4,-1
 384 1531 l 2,5,6
 384 1557 384 1557 397 1563 c 128,-1,7
 410 1569 410 1569 429 1550 c 2,8,-1
 1139 840 l 2,9,10
 1148 831 1148 831 1152 821 c 1,11,-1
 1152 1499 l 2,12,13
 1152 1526 1152 1526 1171 1544 c 0,14,15
 1190 1563 1190 1563 1216 1563 c 2,16,-1
 1344 1563 l 2,17,18
 1370 1563 1370 1563 1389 1544 c 0,19,20
 1408 1526 1408 1526 1408 1499 c 2,21,-1
 1408 91 l 2,22,23
 1408 65 1408 65 1389 46 c 1,24,25
 1368 27 1368 27 1344 27 c 2,26,-1
 1216 27 l 2,27,28
 1192 27 1192 27 1171 46 c 1,29,30
 1152 65 1152 65 1152 91 c 2,31,-1
 1152 769 l 1,32,33
 1148 761 1148 761 1139 750 c 1,34,-1
 429 40 l 1,0,1
EndSplineSet
Validated: 1
EndChar

StartChar: uniE00D
Encoding: 57357 57357 5
Width: 1792
VWidth: 0
Flags: W
HStem: -128 121<1054.61 1113.84> 133 93<1054.66 1165.6> 272 349<895 1206> 667 349<583.016 895> 1063 93<637.658 735.388> 1296 112<623.947 919.5>
VStem: 128 350<415.099 563.75> 525 92<1177.61 1288.15> 1173 92<0.900635 125.597> 1311 353<726.172 869.24>
LayerCount: 2
Fore
SplineSet
887 1408 m 0,0,1
 984 1408 984 1408 1080 1393 c 0,2,3
 1159 1381 1159 1381 1212 1328 c 128,-1,4
 1265 1275 1265 1275 1265 1203 c 2,5,-1
 1265 854 l 2,6,7
 1265 777.5 1265 777.5 1211 722 c 0,8,9
 1157 667 1157 667 1080 667 c 2,10,-1
 710 667 l 2,11,12
 617 667 617 667 547 599 c 0,13,14
 478 531.5 478 531.5 478 440 c 2,15,-1
 478 272 l 1,16,-1
 351 272 l 2,17,18
 274 272 274 272 224 322 c 1,19,20
 173 375 173 375 154 458 c 0,21,22
 128 570 128 570 128 647 c 0,23,24
 128 727 128 727 154 831 c 0,25,26
 169 889 169 889 203 932 c 0,27,28
 238 976 238 976 284 996 c 1,29,30
 333 1016 333 1016 386 1016 c 2,31,-1
 525 1016 l 1,32,-1
 895 1016 l 1,33,-1
 895 1063 l 1,34,-1
 525 1063 l 1,35,-1
 525 1203 l 2,36,37
 525 1246 525 1246 532 1273 c 0,38,39
 539 1304 539 1304 558 1327 c 0,40,41
 579 1351 579 1351 615 1367 c 0,42,43
 652 1383 652 1383 710 1393 c 0,44,45
 792.5 1408 792.5 1408 887 1408 c 0,0,1
686 1296 m 0,46,47
 669 1296 669 1296 652 1286 c 0,48,49
 634 1275 634 1275 626 1261 c 0,50,51
 617 1244 617 1244 617 1226 c 0,52,53
 617 1197 617 1197 637 1177 c 0,54,55
 658 1156 658 1156 687 1156 c 128,-1,56
 716 1156 716 1156 736 1176 c 1,57,58
 756 1198 756 1198 756 1226 c 0,59,60
 756 1236.5 756 1236.5 750 1253 c 0,61,62
 746 1265 746 1265 736 1275 c 0,63,64
 725 1286 725 1286 714 1290 c 0,65,66
 701 1296 701 1296 686 1296 c 0,46,47
1311 1016 m 1,67,-1
 1450 1016 l 2,68,69
 1527 1016 1527 1016 1570 967 c 1,70,71
 1615 918 1615 918 1636 831 c 0,72,73
 1664 719 1664 719 1664 632 c 0,74,75
 1664 539 1664 539 1636 458 c 0,76,77
 1617 404 1617 404 1606 381 c 0,78,79
 1589.5 348 1589.5 348 1570 324 c 0,80,81
 1550.5 298.5 1550.5 298.5 1519 285 c 1,82,83
 1492 272 1492 272 1450 272 c 2,84,-1
 1265 272 l 1,85,-1
 895 272 l 1,86,-1
 895 226 l 1,87,-1
 1265 226 l 1,88,-1
 1265 86 l 2,89,90
 1265 47 1265 47 1250 17 c 0,91,92
 1233 -15 1233 -15 1207 -37 c 128,-1,93
 1181 -59 1181 -59 1149 -74 c 0,94,95
 1115 -90 1115 -90 1080 -100 c 0,96,97
 984 -128 984 -128 892 -128 c 2,98,-1
 886 -128 l 2,99,100
 809 -128 809 -128 710 -100 c 1,101,102
 628 -78 628 -78 576 -30 c 0,103,104
 525 17 525 17 525 86 c 2,105,-1
 525 435 l 2,106,107
 525 485 525 485 550 528 c 0,108,109
 575 570 575 570 617 596 c 1,110,111
 660 621 660 621 710 621 c 2,112,-1
 1080 621 l 2,113,114
 1173 621 1173 621 1242 690 c 128,-1,115
 1311 759 1311 759 1311 854 c 2,116,-1
 1311 1016 l 1,67,-1
1103 133 m 0,117,118
 1075 133 1075 133 1054 112 c 0,119,120
 1034 92 1034 92 1034 63 c 0,121,122
 1034 36 1034 36 1054 14 c 0,123,124
 1074 -7 1074 -7 1103 -7 c 0,125,126
 1130 -7 1130 -7 1152 14 c 0,127,128
 1173 33 1173 33 1173 63 c 0,129,130
 1173 92 1173 92 1152 112 c 1,131,132
 1132 133 1132 133 1103 133 c 0,117,118
EndSplineSet
Validated: 1
EndChar

StartChar: uniE00E
Encoding: 57358 57358 6
Width: 1792
VWidth: 0
Flags: W
HStem: 667 349<583.016 895> 1063 93<637.658 735.388> 1296 112<623.947 919.5>
VStem: 128 350<415.099 563.75> 525 92<1177.61 1288.15>
LayerCount: 2
Fore
SplineSet
887 1408 m 0,0,1
 984 1408 984 1408 1080 1393 c 0,2,3
 1159 1381 1159 1381 1212 1328 c 128,-1,4
 1265 1275 1265 1275 1265 1203 c 2,5,-1
 1265 854 l 2,6,7
 1265 777.5 1265 777.5 1211 722 c 0,8,9
 1157 667 1157 667 1080 667 c 2,10,-1
 710 667 l 2,11,12
 617 667 617 667 547 599 c 0,13,14
 478 531.5 478 531.5 478 440 c 2,15,-1
 478 272 l 1,16,-1
 351 272 l 2,17,18
 274 272 274 272 224 322 c 1,19,20
 173 375 173 375 154 458 c 0,21,22
 128 570 128 570 128 647 c 0,23,24
 128 727 128 727 154 831 c 0,25,26
 169 889 169 889 203 932 c 0,27,28
 238 976 238 976 284 996 c 1,29,30
 333 1016 333 1016 386 1016 c 2,31,-1
 525 1016 l 1,32,-1
 895 1016 l 1,33,-1
 895 1063 l 1,34,-1
 525 1063 l 1,35,-1
 525 1203 l 2,36,37
 525 1246 525 1246 532 1273 c 0,38,39
 539 1304 539 1304 558 1327 c 0,40,41
 579 1351 579 1351 615 1367 c 0,42,43
 652 1383 652 1383 710 1393 c 0,44,45
 792.5 1408 792.5 1408 887 1408 c 0,0,1
686 1296 m 0,46,47
 669 1296 669 1296 652 1286 c 0,48,49
 634 1275 634 1275 626 1261 c 0,50,51
 617 1244 617 1244 617 1226 c 0,52,53
 617 1197 617 1197 637 1177 c 0,54,55
 658 1156 658 1156 687 1156 c 128,-1,56
 716 1156 716 1156 736 1176 c 1,57,58
 756 1198 756 1198 756 1226 c 0,59,60
 756 1236.5 756 1236.5 750 1253 c 0,61,62
 746 1265 746 1265 736 1275 c 0,63,64
 725 1286 725 1286 714 1290 c 0,65,66
 701 1296 701 1296 686 1296 c 0,46,47
EndSplineSet
Validated: 1
EndChar

StartChar: uniE00F
Encoding: 57359 57359 7
Width: 1792
VWidth: 0
Flags: W
HStem: -128 121<1054.61 1113.84> 133 93<1054.66 1165.6> 272 349<895 1206>
VStem: 1173 92<0.900635 125.597> 1311 353<726.172 869.24>
LayerCount: 2
Fore
SplineSet
1311 1016 m 1,0,-1
 1450 1016 l 2,1,2
 1527 1016 1527 1016 1570 967 c 1,3,4
 1615 918 1615 918 1636 831 c 0,5,6
 1664 719 1664 719 1664 632 c 0,7,8
 1664 539 1664 539 1636 458 c 0,9,10
 1617 404 1617 404 1606 381 c 0,11,12
 1589.5 348 1589.5 348 1570 324 c 0,13,14
 1550.5 298.5 1550.5 298.5 1519 285 c 1,15,16
 1492 272 1492 272 1450 272 c 2,17,-1
 1265 272 l 1,18,-1
 895 272 l 1,19,-1
 895 226 l 1,20,-1
 1265 226 l 1,21,-1
 1265 86 l 2,22,23
 1265 47 1265 47 1250 17 c 0,24,25
 1233 -15 1233 -15 1207 -37 c 128,-1,26
 1181 -59 1181 -59 1149 -74 c 0,27,28
 1115 -90 1115 -90 1080 -100 c 0,29,30
 984 -128 984 -128 892 -128 c 2,31,-1
 886 -128 l 2,32,33
 809 -128 809 -128 710 -100 c 1,34,35
 628 -78 628 -78 576 -30 c 0,36,37
 525 17 525 17 525 86 c 2,38,-1
 525 435 l 2,39,40
 525 485 525 485 550 528 c 0,41,42
 575 570 575 570 617 596 c 1,43,44
 660 621 660 621 710 621 c 2,45,-1
 1080 621 l 2,46,47
 1173 621 1173 621 1242 690 c 128,-1,48
 1311 759 1311 759 1311 854 c 2,49,-1
 1311 1016 l 1,0,-1
1103 133 m 0,50,51
 1075 133 1075 133 1054 112 c 0,52,53
 1034 92 1034 92 1034 63 c 0,54,55
 1034 36 1034 36 1054 14 c 0,56,57
 1074 -7 1074 -7 1103 -7 c 0,58,59
 1130 -7 1130 -7 1152 14 c 0,60,61
 1173 33 1173 33 1173 63 c 0,62,63
 1173 92 1173 92 1152 112 c 1,64,65
 1132 133 1132 133 1103 133 c 0,50,51
EndSplineSet
Validated: 1
EndChar

StartChar: uniE010
Encoding: 57360 57360 8
Width: 1792
VWidth: 0
Flags: W
HStem: 795 71<170 275> 1188 82<677 1103>
LayerCount: 2
Fore
SplineSet
1233 1390 m 1,0,-1
 1291 1349 l 1,1,2
 1258 1300 1258 1300 1213 1228 c 1,3,-1
 1501 861 l 1,4,-1
 1615 908 l 1,5,-1
 1642 842 l 1,6,7
 1632 838 1632 838 1593 821.5 c 128,-1,8
 1554 805 1554 805 1525 793 c 1,9,-1
 1420 338 l 1,10,11
 1442 314 1442 314 1452 304 c 0,12,13
 1458 298 1458 298 1467.5 289 c 128,-1,14
 1477 280 1477 280 1480 277 c 0,15,16
 1494 263 1494 263 1500 258 c 0,17,18
 1512 248 1512 248 1514 246 c 2,19,-1
 1518 243 l 1,20,-1
 1474 187 l 1,21,22
 1445 209 1445 209 1392 264 c 1,23,-1
 1386 261 l 1,24,-1
 929 42 l 1,25,-1
 915 -96 l 1,26,-1
 844 -88 l 1,27,28
 854 7 854 7 857 45 c 1,29,-1
 407 267 l 2,30,31
 405 267 405 267 404 268 c 1,32,33
 376 245 376 245 370 241 c 0,34,35
 344 222 344 222 340 219 c 0,36,37
 337 217 337 217 328.5 211 c 128,-1,38
 320 205 320 205 315 202 c 0,39,40
 301 192 301 192 295 189 c 1,41,-1
 281 179 l 2,42,43
 279 178 279 178 277 177 c 128,-1,44
 275 176 275 176 273.5 175 c 128,-1,45
 272 174 272 174 271 174 c 2,46,-1
 268 172 l 1,47,-1
 234 235 l 1,48,49
 287 263 287 263 376 337 c 1,50,-1
 275 795 l 2,51,52
 274 795 274 795 266.5 795.5 c 128,-1,53
 259 796 259 796 243 796.5 c 128,-1,54
 227 797 227 797 210 797 c 1,55,56
 179 799 179 799 169 800 c 2,57,-1
 158 801 l 1,58,-1
 170 872 l 1,59,-1
 171 872 l 2,60,61
 172 872 172 872 173.5 871.5 c 128,-1,62
 175 871 175 871 177.5 870.5 c 128,-1,63
 180 870 180 870 183 870 c 0,64,65
 193 869 193 869 224 867 c 0,66,67
 238 866 238 866 270 866 c 2,68,-1
 296 866 l 1,69,-1
 596 1242 l 1,70,71
 588 1300 588 1300 578 1361 c 1,72,-1
 649 1371 l 1,73,74
 659 1303 659 1303 664 1270 c 1,75,-1
 1153 1268 l 1,76,-1
 1233 1390 l 1,0,-1
677 1188 m 1,77,78
 700 1045 700 1045 724 915 c 1,79,-1
 968 958 l 1,80,81
 1037 1078 1037 1078 1103 1186 c 1,82,-1
 677 1188 l 1,77,78
1167 1155 m 1,83,84
 1115 1071 1115 1071 1033 929 c 1,85,-1
 1148 712 l 1,86,87
 1178 725 1178 725 1277 766.5 c 128,-1,88
 1376 808 1376 808 1423 828 c 1,89,-1
 1167 1155 l 1,83,84
614 1132 m 1,90,-1
 404 870 l 1,91,92
 518 876 518 876 656 894 c 1,93,94
 636 988 636 988 614 1132 c 1,90,-1
975 886 m 1,95,-1
 730 843 l 1,96,-1
 695 594 l 1,97,-1
 919 483 l 1,98,-1
 1092 664 l 1,99,-1
 975 886 l 1,95,-1
655 822 m 1,100,101
 485 800 485 800 358 796 c 1,102,-1
 446 398 l 1,103,104
 536 482 536 482 621 580 c 1,105,-1
 655 822 l 1,100,101
1432 754 m 1,106,107
 1332 711 1332 711 1190 652 c 1,108,109
 1261 528 1261 528 1354 414 c 1,110,-1
 1432 754 l 1,106,107
1135 605 m 1,111,-1
 960 422 l 1,112,113
 955 361 955 361 946.5 253.5 c 128,-1,114
 938 146 938 146 937 137 c 1,115,-1
 1333 327 l 1,116,-1
 1334 328 l 1,117,118
 1221 459 1221 459 1135 605 c 1,111,-1
669 527 m 1,119,120
 571.5 414.5 571.5 414.5 471 326 c 1,121,-1
 865 132 l 1,122,123
 886 397 886 397 888 419 c 1,124,-1
 669 527 l 1,119,120
EndSplineSet
Validated: 1
EndChar

StartChar: uniE011
Encoding: 57361 57361 9
Width: 1792
VWidth: 0
Flags: W
HStem: 467 126<1019.23 1179.41> 578 283<1299 1404.83> 748 125<608.688 767.372>
VStem: 1210 282<665.109 774.892>
LayerCount: 2
Fore
SplineSet
688 873 m 2,0,-1
 707 873 l 2,1,2
 778 873 778 873 840 811 c 2,3,-1
 1034 617 l 2,4,5
 1058 593 1058 593 1100 593 c 0,6,7
 1141 593 1141 593 1164 616 c 2,8,-1
 1210 662 l 1,9,10
 1210 674 l 2,11,12
 1210 739 1210 739 1271 800 c 0,13,14
 1331 861 1331 861 1400 861 c 0,15,16
 1439 861 1439 861 1466 834 c 1,17,18
 1492 805 1492 805 1492 777 c 0,19,20
 1492 699 1492 699 1430 640 c 1,21,22
 1371 578 1371 578 1299 578 c 1,23,-1
 1250 529 l 2,24,25
 1188 467 1188 467 1100 467 c 0,26,27
 1011 467 1011 467 948 530 c 2,28,-1
 754 724 l 2,29,30
 730 748 730 748 688 748 c 0,31,32
 647 748 647 748 624 725 c 2,33,-1
 428 528 l 1,34,-1
 341 614 l 1,35,-1
 538 811 l 2,36,37
 600 873 600 873 688 873 c 2,0,-1
EndSplineSet
Validated: 1
EndChar

StartChar: uniE012
Encoding: 57362 57362 10
Width: 1792
VWidth: 0
Flags: W
LayerCount: 2
Fore
SplineSet
1163 1227 m 1,0,-1
 1487 812 l 1,1,-1
 1369 298 l 1,2,-1
 896 72 l 1,3,-1
 425 303 l 1,4,-1
 311 819 l 1,5,-1
 639 1230 l 1,6,-1
 1163 1227 l 1,0,-1
EndSplineSet
Validated: 1
EndChar

StartChar: uniE008
Encoding: 57352 57352 11
Width: 1792
VWidth: 0
HStem: -102 256<256 384> 282 256<531.611 1772.39> 666 256<787.611 1772.39> 1050 256<531.611 1772.39> 1434 256<256 640>
VStem: 0 256<154 1434>
LayerCount: 2
Fore
SplineSet
1792 474 m 2,0,-1
 1792 346 l 2,1,2
 1792 320 1792 320 1773 301 c 128,-1,3
 1754 282 1754 282 1728 282 c 2,4,-1
 576 282 l 2,5,6
 550 282 550 282 531 301 c 128,-1,7
 512 320 512 320 512 346 c 2,8,-1
 512 474 l 2,9,10
 512 500 512 500 531 519 c 128,-1,11
 550 538 550 538 576 538 c 2,12,-1
 1728 538 l 2,13,14
 1754 538 1754 538 1773 519 c 128,-1,15
 1792 500 1792 500 1792 474 c 2,0,-1
1792 858 m 2,16,-1
 1792 730 l 2,17,18
 1792 704 1792 704 1773 685 c 128,-1,19
 1754 666 1754 666 1728 666 c 2,20,-1
 832 666 l 2,21,22
 806 666 806 666 787 685 c 128,-1,23
 768 704 768 704 768 730 c 2,24,-1
 768 858 l 2,25,26
 768 884 768 884 787 903 c 128,-1,27
 806 922 806 922 832 922 c 2,28,-1
 1728 922 l 2,29,30
 1754 922 1754 922 1773 903 c 128,-1,31
 1792 884 1792 884 1792 858 c 2,16,-1
1792 1242 m 2,32,-1
 1792 1114 l 2,33,34
 1792 1088 1792 1088 1773 1069 c 128,-1,35
 1754 1050 1754 1050 1728 1050 c 2,36,-1
 576 1050 l 2,37,38
 550 1050 550 1050 531 1069 c 128,-1,39
 512 1088 512 1088 512 1114 c 2,40,-1
 512 1242 l 2,41,42
 512 1268 512 1268 531 1287 c 128,-1,43
 550 1306 550 1306 576 1306 c 2,44,-1
 1728 1306 l 2,45,46
 1754 1306 1754 1306 1773 1287 c 128,-1,47
 1792 1268 1792 1268 1792 1242 c 2,32,-1
128 1690 m 2,48,-1
 640 1690 l 1,49,-1
 640 1434 l 1,50,-1
 256 1434 l 1,51,-1
 256 239 l 1,52,-1
 256 154 l 1,53,-1
 384 154 l 1,54,-1
 384 346 l 1,55,-1
 704 26 l 1,56,-1
 384 -294 l 1,57,-1
 384 -102 l 1,58,-1
 128 -102 l 2,59,60
 102 -102 102 -102 79 -92 c 0,61,62
 55 -82 55 -82 38 -64 c 1,63,64
 20 -47 20 -47 10 -23 c 0,65,66
 0 -0 0 -0 0 26 c 2,67,-1
 0 239 l 1,68,-1
 0 1562 l 2,69,70
 0 1588 0 1588 10 1611 c 0,71,72
 20 1635 20 1635 38 1652 c 1,73,74
 55 1670 55 1670 79 1680 c 0,75,76
 102 1690 102 1690 128 1690 c 2,48,-1
EndSplineSet
Validated: 1
EndChar

StartChar: uniE007
Encoding: 57351 57351 12
Width: 1792
VWidth: 0
HStem: -102 256<256 384> 282 256<531.611 1772.39> 666 256<256 640 787.611 1772.39> 1050 256<531.611 1772.39>
VStem: 0 256<154 666>
LayerCount: 2
Fore
SplineSet
576 1306 m 2,0,-1
 1728 1306 l 2,1,2
 1754 1306 1754 1306 1773 1287 c 128,-1,3
 1792 1268 1792 1268 1792 1242 c 2,4,-1
 1792 1114 l 2,5,6
 1792 1088 1792 1088 1773 1069 c 128,-1,7
 1754 1050 1754 1050 1728 1050 c 2,8,-1
 576 1050 l 2,9,10
 550 1050 550 1050 531 1069 c 128,-1,11
 512 1088 512 1088 512 1114 c 2,12,-1
 512 1242 l 2,13,14
 512 1268 512 1268 531 1287 c 128,-1,15
 550 1306 550 1306 576 1306 c 2,0,-1
128 922 m 2,16,-1
 640 922 l 1,17,-1
 640 666 l 1,18,-1
 256 666 l 1,19,-1
 256 239 l 1,20,-1
 256 154 l 1,21,-1
 384 154 l 1,22,-1
 384 346 l 1,23,-1
 704 26 l 1,24,-1
 384 -294 l 1,25,-1
 384 -102 l 1,26,-1
 128 -102 l 2,27,28
 102 -102 102 -102 79 -92 c 0,29,30
 55 -82 55 -82 38 -64 c 1,31,32
 20 -47 20 -47 10 -23 c 0,33,34
 0 -0 0 -0 0 26 c 2,35,-1
 0 239 l 1,36,-1
 0 794 l 2,37,38
 0 820 0 820 10 843 c 0,39,40
 20 867 20 867 38 884 c 1,41,42
 55 902 55 902 79 912 c 0,43,44
 102 922 102 922 128 922 c 2,16,-1
832 922 m 2,45,-1
 1728 922 l 2,46,47
 1754 922 1754 922 1773 903 c 128,-1,48
 1792 884 1792 884 1792 858 c 2,49,-1
 1792 730 l 2,50,51
 1792 704 1792 704 1773 685 c 128,-1,52
 1754 666 1754 666 1728 666 c 2,53,-1
 832 666 l 2,54,55
 806 666 806 666 787 685 c 128,-1,56
 768 704 768 704 768 730 c 2,57,-1
 768 858 l 2,58,59
 768 884 768 884 787 903 c 128,-1,60
 806 922 806 922 832 922 c 2,45,-1
576 538 m 2,61,-1
 1728 538 l 2,62,63
 1754 538 1754 538 1773 519 c 128,-1,64
 1792 500 1792 500 1792 474 c 2,65,-1
 1792 346 l 2,66,67
 1792 320 1792 320 1773 301 c 128,-1,68
 1754 282 1754 282 1728 282 c 2,69,-1
 576 282 l 2,70,71
 550 282 550 282 531 301 c 128,-1,72
 512 320 512 320 512 346 c 2,73,-1
 512 474 l 2,74,75
 512 500 512 500 531 519 c 128,-1,76
 550 538 550 538 576 538 c 2,61,-1
EndSplineSet
Validated: 1
EndChar

StartChar: uniE006
Encoding: 57350 57350 13
Width: 1792
VWidth: 0
HStem: 282 256<531.611 1772.39> 666 256<256 384 787.611 1772.39> 1050 256<531.611 1772.39> 1434 256<256 640>
VStem: 0 256<922 1434>
LayerCount: 2
Fore
SplineSet
1792 474 m 2,0,-1
 1792 346 l 2,1,2
 1792 320 1792 320 1773 301 c 128,-1,3
 1754 282 1754 282 1728 282 c 2,4,-1
 576 282 l 2,5,6
 550 282 550 282 531 301 c 128,-1,7
 512 320 512 320 512 346 c 2,8,-1
 512 474 l 2,9,10
 512 500 512 500 531 519 c 128,-1,11
 550 538 550 538 576 538 c 2,12,-1
 1728 538 l 2,13,14
 1754 538 1754 538 1773 519 c 128,-1,15
 1792 500 1792 500 1792 474 c 2,0,-1
1792 858 m 2,16,-1
 1792 730 l 2,17,18
 1792 704 1792 704 1773 685 c 128,-1,19
 1754 666 1754 666 1728 666 c 2,20,-1
 832 666 l 2,21,22
 806 666 806 666 787 685 c 128,-1,23
 768 704 768 704 768 730 c 2,24,-1
 768 858 l 2,25,26
 768 884 768 884 787 903 c 128,-1,27
 806 922 806 922 832 922 c 2,28,-1
 1728 922 l 2,29,30
 1754 922 1754 922 1773 903 c 128,-1,31
 1792 884 1792 884 1792 858 c 2,16,-1
1792 1242 m 2,32,-1
 1792 1114 l 2,33,34
 1792 1088 1792 1088 1773 1069 c 128,-1,35
 1754 1050 1754 1050 1728 1050 c 2,36,-1
 576 1050 l 2,37,38
 550 1050 550 1050 531 1069 c 128,-1,39
 512 1088 512 1088 512 1114 c 2,40,-1
 512 1242 l 2,41,42
 512 1268 512 1268 531 1287 c 128,-1,43
 550 1306 550 1306 576 1306 c 2,44,-1
 1728 1306 l 2,45,46
 1754 1306 1754 1306 1773 1287 c 128,-1,47
 1792 1268 1792 1268 1792 1242 c 2,32,-1
128 1690 m 2,48,-1
 640 1690 l 1,49,-1
 640 1434 l 1,50,-1
 256 1434 l 1,51,-1
 256 1007 l 1,52,-1
 256 922 l 1,53,-1
 384 922 l 1,54,-1
 384 1114 l 1,55,-1
 704 794 l 1,56,-1
 384 474 l 1,57,-1
 384 666 l 1,58,-1
 128 666 l 2,59,60
 102 666 102 666 79 676 c 0,61,62
 55 686 55 686 38 704 c 1,63,64
 20 721 20 721 10 745 c 0,65,66
 0 768 0 768 0 794 c 2,67,-1
 0 1007 l 1,68,-1
 0 1562 l 2,69,70
 0 1588 0 1588 10 1611 c 0,71,72
 20 1635 20 1635 38 1652 c 1,73,74
 55 1670 55 1670 79 1680 c 0,75,76
 102 1690 102 1690 128 1690 c 2,48,-1
EndSplineSet
Validated: 1
EndChar

StartChar: uniE005
Encoding: 57349 57349 14
Width: 1792
VWidth: 0
HStem: 149 517<1148.72 1417.01> 282 256<512 640> 922 512<1147.43 1412.57> 1050 256<512 896>
VStem: 256 256<538 1050> 1024 517<273.435 541.282 1050.75 1305.25>
LayerCount: 2
Fore
SplineSet
1280 1434 m 128,-1,1
 1386 1434 1386 1434 1461 1359 c 128,-1,2
 1536 1284 1536 1284 1536 1178 c 128,-1,3
 1536 1072 1536 1072 1461 997 c 128,-1,4
 1386 922 1386 922 1280 922 c 128,-1,5
 1174 922 1174 922 1099 997 c 128,-1,6
 1024 1072 1024 1072 1024 1178 c 128,-1,7
 1024 1284 1024 1284 1099 1359 c 128,-1,0
 1174 1434 1174 1434 1280 1434 c 128,-1,1
1283 666 m 128,-1,9
 1390 666 1390 666 1465.5 590 c 128,-1,10
 1541 514 1541 514 1541 407 c 128,-1,11
 1541 300 1541 300 1465.5 224.5 c 128,-1,12
 1390 149 1390 149 1283 149 c 128,-1,13
 1176 149 1176 149 1100 224.5 c 128,-1,14
 1024 300 1024 300 1024 407 c 128,-1,15
 1024 514 1024 514 1100 590 c 128,-1,8
 1176 666 1176 666 1283 666 c 128,-1,9
384 1306 m 2,16,-1
 896 1306 l 1,17,-1
 896 1050 l 1,18,-1
 512 1050 l 1,19,-1
 512 538 l 1,20,-1
 640 538 l 1,21,-1
 640 666 l 1,22,-1
 1024 410 l 1,23,-1
 640 154 l 1,24,-1
 640 282 l 1,25,-1
 384 282 l 2,26,27
 336 282 336 282 296 322 c 128,-1,28
 256 362 256 362 256 410 c 2,29,-1
 256 1178 l 2,30,31
 256 1226 256 1226 296 1266 c 128,-1,32
 336 1306 336 1306 384 1306 c 2,16,-1
EndSplineSet
Validated: 1
EndChar

StartChar: uniE013
Encoding: 57363 57363 15
Width: 1792
VWidth: 0
LayerCount: 2
Fore
SplineSet
640 346 m 2,0,-1
 640 -102 l 2,1,2
 640 -128 640 -128 621 -147 c 128,-1,3
 602 -166 602 -166 576 -166 c 0,4,5
 533 -166 533 -166 531 -147 c 1,6,-1
 387 -3 l 1,7,-1
 183 -207 l 2,8,9
 173 -217 173 -217 160 -217 c 128,-1,10
 147 -217 147 -217 137 -207 c 2,11,-1
 23 -93 l 2,12,13
 13 -83 13 -83 13 -70 c 128,-1,14
 13 -57 13 -57 23 -47 c 2,15,-1
 227 157 l 1,16,-1
 83 301 l 2,17,18
 64 320 64 320 64 346 c 128,-1,19
 64 372 64 372 83 391 c 128,-1,20
 102 410 102 410 128 410 c 2,21,-1
 576 410 l 2,22,23
 602 410 602 410 621 391 c 128,-1,24
 640 372 640 372 640 346 c 2,0,-1
1523 1146 m 128,-1,26
 1523 1133 1523 1133 1513 1123 c 2,27,-1
 1309 919 l 1,28,-1
 1453 775 l 2,29,30
 1472 756 1472 756 1472 730 c 128,-1,31
 1472 704 1472 704 1453 685 c 128,-1,32
 1434 666 1434 666 1408 666 c 2,33,-1
 960 666 l 2,34,35
 934 666 934 666 915 685 c 128,-1,36
 896 704 896 704 896 730 c 2,37,-1
 896 1178 l 2,38,39
 896 1204 896 1204 915 1223 c 128,-1,40
 934 1242 934 1242 960 1242 c 0,41,42
 996 1242 996 1242 1005 1223 c 1,43,-1
 1149 1079 l 1,44,-1
 1353 1283 l 2,45,46
 1363 1293 1363 1293 1376 1293 c 128,-1,47
 1389 1293 1389 1293 1399 1283 c 2,48,-1
 1513 1169 l 2,49,25
 1523 1159 1523 1159 1523 1146 c 128,-1,26
640 730 m 2,50,51
 640 704 640 704 621 685 c 128,-1,52
 602 666 602 666 576 666 c 2,53,-1
 128 666 l 2,54,55
 102 666 102 666 83 685 c 128,-1,56
 64 704 64 704 64 730 c 128,-1,57
 64 756 64 756 83 775 c 2,58,-1
 227 919 l 1,59,-1
 23 1123 l 2,60,61
 13 1133 13 1133 13 1146 c 128,-1,62
 13 1159 13 1159 23 1169 c 2,63,-1
 137 1283 l 2,64,65
 147 1293 147 1293 160 1293 c 128,-1,66
 173 1293 173 1293 183 1283 c 2,67,-1
 387 1079 l 1,68,-1
 531 1223 l 2,69,70
 550 1242 550 1242 576 1242 c 128,-1,71
 602 1242 602 1242 621 1223 c 128,-1,72
 640 1204 640 1204 640 1178 c 2,73,-1
 640 730 l 2,50,51
1523 -70 m 128,-1,75
 1523 -83 1523 -83 1513 -93 c 2,76,-1
 1399 -207 l 2,77,78
 1389 -217 1389 -217 1376 -217 c 128,-1,79
 1363 -217 1363 -217 1353 -207 c 2,80,-1
 1149 -3 l 1,81,-1
 1005 -147 l 2,82,83
 986 -166 986 -166 960 -166 c 128,-1,84
 934 -166 934 -166 915 -147 c 128,-1,85
 896 -128 896 -128 896 -102 c 2,86,-1
 896 346 l 2,87,88
 896 372 896 372 915 391 c 128,-1,89
 934 410 934 410 960 410 c 2,90,-1
 1408 410 l 2,91,92
 1434 410 1434 410 1453 391 c 128,-1,93
 1472 372 1472 372 1472 346 c 128,-1,94
 1472 320 1472 320 1453 301 c 2,95,-1
 1309 157 l 1,96,-1
 1513 -47 l 2,97,74
 1523 -57 1523 -57 1523 -70 c 128,-1,75
EndSplineSet
Validated: 1
EndChar

StartChar: uniE014
Encoding: 57364 57364 16
Width: 1792
VWidth: 0
HStem: 0 128<160 1535.86> 640 128<128 1536> 1280 256<128.141 1535.86>
VStem: 0 128<160 640 768 1280> 1536 128<128.141 640 768 1280>
LayerCount: 2
Fore
SplineSet
160 1536 m 2,0,-1
 1504 1536 l 2,1,2
 1570 1536 1570 1536 1617 1489 c 128,-1,3
 1664 1442 1664 1442 1664 1376 c 2,4,-1
 1664 160 l 2,5,6
 1664 94 1664 94 1617 47 c 128,-1,7
 1570 0 1570 0 1504 0 c 2,8,-1
 160 0 l 2,9,10
 94 0 94 0 47 47 c 128,-1,11
 0 94 0 94 0 160 c 2,12,-1
 0 1376 l 2,13,14
 0 1442 0 1442 47 1489 c 128,-1,15
 94 1536 94 1536 160 1536 c 2,0,-1
128 1280 m 1,16,-1
 128 768 l 1,17,-1
 1536 768 l 1,18,-1
 1536 1280 l 1,19,-1
 128 1280 l 1,16,-1
128 640 m 1,20,-1
 128 160 l 1,21,-1
 138 138 l 1,22,-1
 160 128 l 1,23,-1
 1504 128 l 2,24,25
 1517 128 1517 128 1526 138 c 1,26,27
 1536 147 1536 147 1536 160 c 2,28,-1
 1536 640 l 1,29,-1
 128 640 l 1,20,-1
EndSplineSet
Validated: 1
EndChar

StartChar: uniE015
Encoding: 57365 57365 17
Width: 1792
VWidth: 0
HStem: 0 128<160 1535.86> 1280 256<128.141 1535.86>
VStem: 0 128<160 1280> 1536 128<128.141 1280>
LayerCount: 2
Fore
SplineSet
160 1536 m 2,0,-1
 1504 1536 l 2,1,2
 1570 1536 1570 1536 1617 1489 c 128,-1,3
 1664 1442 1664 1442 1664 1376 c 2,4,-1
 1664 160 l 2,5,6
 1664 94 1664 94 1617 47 c 128,-1,7
 1570 0 1570 0 1504 0 c 2,8,-1
 160 0 l 2,9,10
 94 0 94 0 47 47 c 128,-1,11
 0 94 0 94 0 160 c 2,12,-1
 0 1376 l 2,13,14
 0 1442 0 1442 47 1489 c 128,-1,15
 94 1536 94 1536 160 1536 c 2,0,-1
128 1280 m 1,16,-1
 128 160 l 1,17,-1
 138 138 l 1,18,-1
 160 128 l 1,19,-1
 1504 128 l 2,20,21
 1517 128 1517 128 1526 138 c 1,22,23
 1536 147 1536 147 1536 160 c 2,24,-1
 1536 1280 l 1,25,-1
 128 1280 l 1,16,-1
EndSplineSet
Validated: 1
EndChar

StartChar: uniE016
Encoding: 57366 57366 18
Width: 1792
VWidth: 0
HStem: 0 128<160 1535.86> 512 384<768 1024> 1280 256<128.141 1535.86>
VStem: 0 128<160 1280> 192 576<192 512 896 1216> 1536 128<128.141 1280>
LayerCount: 2
Fore
SplineSet
160 1536 m 2,0,-1
 1504 1536 l 2,1,2
 1570 1536 1570 1536 1617 1489 c 128,-1,3
 1664 1442 1664 1442 1664 1376 c 2,4,-1
 1664 160 l 2,5,6
 1664 94 1664 94 1617 47 c 128,-1,7
 1570 0 1570 0 1504 0 c 2,8,-1
 160 0 l 2,9,10
 94 0 94 0 47 47 c 128,-1,11
 0 94 0 94 0 160 c 2,12,-1
 0 1376 l 2,13,14
 0 1442 0 1442 47 1489 c 128,-1,15
 94 1536 94 1536 160 1536 c 2,0,-1
128 1280 m 1,16,-1
 128 160 l 1,17,-1
 138 138 l 1,18,-1
 160 128 l 1,19,-1
 1504 128 l 2,20,21
 1517 128 1517 128 1526 138 c 1,22,23
 1536 147 1536 147 1536 160 c 2,24,-1
 1536 1280 l 1,25,-1
 128 1280 l 1,16,-1
192 1216 m 1,26,-1
 768 1216 l 1,27,-1
 768 896 l 1,28,-1
 1024 896 l 1,29,-1
 1024 1152 l 1,30,-1
 1535 704 l 1,31,-1
 1024 192 l 1,32,-1
 1024 512 l 1,33,-1
 768 512 l 1,34,-1
 768 192 l 1,35,-1
 192 192 l 1,36,-1
 192 1216 l 1,26,-1
EndSplineSet
Validated: 1
EndChar

StartChar: uniE017
Encoding: 57367 57367 19
Width: 1792
VWidth: 0
HStem: 0 128<128.141 1535.86> 192 320<768 1024> 896 320<768 1024> 1280 256<128.141 1535.86>
VStem: 0 128<128.141 1280> 768 256<256 512 896 1152> 1536 128<128.141 1280>
LayerCount: 2
Fore
SplineSet
160 1536 m 2,0,-1
 1504 1536 l 2,1,2
 1570 1536 1570 1536 1617 1489 c 128,-1,3
 1664 1442 1664 1442 1664 1376 c 2,4,-1
 1664 160 l 2,5,6
 1664 94 1664 94 1617 47 c 128,-1,7
 1570 0 1570 0 1504 0 c 2,8,-1
 160 0 l 2,9,10
 94 0 94 0 47 47 c 128,-1,11
 0 94 0 94 0 160 c 2,12,-1
 0 1376 l 2,13,14
 0 1442 0 1442 47 1489 c 128,-1,15
 94 1536 94 1536 160 1536 c 2,0,-1
128 1280 m 1,16,-1
 128 128 l 1,17,-1
 1504 128 l 2,18,19
 1517 128 1517 128 1526 138 c 1,20,21
 1536 147 1536 147 1536 160 c 2,22,-1
 1536 1280 l 1,23,-1
 128 1280 l 1,16,-1
1024 192 m 1,24,-1
 192 192 l 1,25,-1
 192 1216 l 1,26,-1
 1024 1216 l 1,27,-1
 1024 896 l 1,28,-1
 768 896 l 1,29,-1
 768 1152 l 1,30,-1
 256 704 l 1,31,-1
 768 256 l 1,32,-1
 768 512 l 1,33,-1
 1024 512 l 1,34,-1
 1024 192 l 1,24,-1
EndSplineSet
Validated: 1
EndChar

StartChar: uniE018
Encoding: 57368 57368 20
Width: 1792
VWidth: 0
HStem: -115 125<641.612 822.572> -102 128<256 512 640 766.342 1280 1536> 1050 128<256 512 1280 1536>
VStem: 128 384<-102 26 1050 1178> 128 128<26 1050> 1280 384<-102 26 1050 1178> 1536 128<26 1050>
LayerCount: 2
Fore
SplineSet
512 -102 m 1,0,-1
 128 -102 l 1,1,-1
 128 1178 l 1,2,-1
 512 1178 l 1,3,-1
 512 1050 l 1,4,-1
 256 1050 l 1,5,-1
 256 26 l 1,6,-1
 512 26 l 1,7,-1
 512 -102 l 1,0,-1
1664 -102 m 1,8,-1
 1280 -102 l 1,9,-1
 1280 26 l 1,10,-1
 1536 26 l 1,11,-1
 1536 1050 l 1,12,-1
 1280 1050 l 1,13,-1
 1280 1178 l 1,14,-1
 1666 1178 l 1,15,-1
 1664 -102 l 1,8,-1
636 921 m 1,16,-1
 768 922 l 1,17,18
 785 879 785 879 866.5 677.5 c 128,-1,19
 948 476 948 476 969 410 c 1,20,21
 994 461 994 461 1024 538 c 1,22,-1
 1152 922 l 1,23,-1
 1280 922 l 1,24,-1
 1024 154 l 1,25,26
 964 -3 964 -3 920 -49 c 1,27,28
 854 -115 854 -115 768 -115 c 0,29,30
 703 -115 703 -115 640 -102 c 1,31,-1
 640 26 l 1,32,33
 715 12 715 12 768 10 c 1,34,-1
 774 10 l 2,35,36
 810 10 810 10 823 26 c 0,37,38
 845 53 845 53 872 121 c 1,39,-1
 914 221 l 1,40,-1
 636 921 l 1,16,-1
EndSplineSet
Validated: 1
EndChar

StartChar: uniE019
Encoding: 57369 57369 21
Width: 1792
VWidth: 0
HStem: -102 128<640 896 1024 1280> 1306 128<640 896 1024 1280>
VStem: 0 768<154 1178> 896 128<26 1306>
LayerCount: 2
Fore
SplineSet
0 1178 m 1,0,-1
 768 1178 l 1,1,-1
 768 154 l 1,2,-1
 0 154 l 1,3,-1
 0 1178 l 1,0,-1
640 -102 m 1,4,-1
 640 26 l 1,5,-1
 896 26 l 1,6,-1
 896 1306 l 1,7,-1
 640 1306 l 1,8,-1
 640 1434 l 1,9,-1
 1280 1434 l 1,10,-1
 1280 1306 l 1,11,-1
 1024 1306 l 1,12,-1
 1024 26 l 1,13,-1
 1280 26 l 1,14,-1
 1280 -102 l 1,15,-1
 640 -102 l 1,4,-1
1152 1178 m 1,16,-1
 1792 666 l 1,17,-1
 1152 154 l 1,18,-1
 1152 1178 l 1,16,-1
EndSplineSet
Validated: 1
EndChar

StartChar: uniE01A
Encoding: 57370 57370 22
Width: 1792
VWidth: 0
HStem: -102 128<1152 1408 1536 1792> 154 640<0 1280> 922 128<1152 1408 1536 1792> 1178 512<0 1664>
VStem: 1408 128<26 922>
LayerCount: 2
Fore
SplineSet
1152 1050 m 1,0,-1
 1792 1050 l 1,1,-1
 1792 922 l 1,2,-1
 1536 922 l 1,3,-1
 1536 26 l 1,4,-1
 1792 26 l 1,5,-1
 1792 -102 l 1,6,-1
 1152 -102 l 1,7,-1
 1152 26 l 1,8,-1
 1408 26 l 1,9,-1
 1408 922 l 1,10,-1
 1152 922 l 1,11,-1
 1152 1050 l 1,0,-1
0 794 m 1,12,-1
 1280 794 l 1,13,-1
 1280 154 l 1,14,-1
 0 154 l 1,15,-1
 0 794 l 1,12,-1
0 1690 m 1,16,-1
 1664 1690 l 1,17,-1
 1664 1178 l 1,18,-1
 0 1178 l 1,19,-1
 0 1690 l 1,16,-1
EndSplineSet
Validated: 1
EndChar

StartChar: uniE01B
Encoding: 57371 57371 23
Width: 1792
VWidth: 0
HStem: -102 384<659.565 1004.43> 26 128<384 640> 410 128<1344 1472> 538 128<896 1216> 666 128<1344 1472> 922 128<1344 1472> 1050 128<896 1216> 1178 128<1344 1472> 1306 384<659.565 768 896 1004.43> 1434 128<384 640>
VStem: 256 128<154 1434 1562 1690> 640 384<-82.4346 26 154 262.435 1325.57 1434 1562 1670.43> 768 128<666 1050 1178 1306> 1216 384<415.078 538 666 788.922 927.078 1050 1178 1300.92> 1472 128<538 666 1050 1178>
LayerCount: 2
Fore
SplineSet
256 1690 m 1,0,-1
 384 1690 l 1,1,-1
 384 1562 l 1,2,-1
 640 1562 l 1,3,-1
 640 1626 l 2,4,5
 640 1652 640 1652 659 1671 c 128,-1,6
 678 1690 678 1690 704 1690 c 2,7,-1
 960 1690 l 2,8,9
 986 1690 986 1690 1005 1671 c 128,-1,10
 1024 1652 1024 1652 1024 1626 c 2,11,-1
 1024 1370 l 2,12,13
 1024 1344 1024 1344 1005 1325 c 128,-1,14
 986 1306 986 1306 960 1306 c 2,15,-1
 896 1306 l 1,16,-1
 896 1178 l 1,17,-1
 1216 1178 l 1,18,-1
 1216 1242 l 2,19,20
 1216 1268 1216 1268 1235 1287 c 128,-1,21
 1254 1306 1254 1306 1280 1306 c 2,22,-1
 1536 1306 l 2,23,24
 1562 1306 1562 1306 1581 1287 c 128,-1,25
 1600 1268 1600 1268 1600 1242 c 2,26,-1
 1600 986 l 2,27,28
 1600 960 1600 960 1581 941 c 128,-1,29
 1562 922 1562 922 1536 922 c 2,30,-1
 1280 922 l 2,31,32
 1254 922 1254 922 1235 941 c 128,-1,33
 1216 960 1216 960 1216 986 c 2,34,-1
 1216 1050 l 1,35,-1
 896 1050 l 1,36,-1
 896 666 l 1,37,-1
 1216 666 l 1,38,-1
 1216 730 l 2,39,40
 1216 756 1216 756 1235 775 c 128,-1,41
 1254 794 1254 794 1280 794 c 2,42,-1
 1536 794 l 2,43,44
 1562 794 1562 794 1581 775 c 128,-1,45
 1600 756 1600 756 1600 730 c 2,46,-1
 1600 474 l 2,47,48
 1600 448 1600 448 1581 429 c 128,-1,49
 1562 410 1562 410 1536 410 c 2,50,-1
 1280 410 l 2,51,52
 1254 410 1254 410 1235 429 c 128,-1,53
 1216 448 1216 448 1216 474 c 2,54,-1
 1216 538 l 1,55,-1
 832 538 l 1,56,-1
 768 538 l 1,57,-1
 768 602 l 1,58,-1
 768 1306 l 1,59,-1
 704 1306 l 2,60,61
 678 1306 678 1306 659 1325 c 128,-1,62
 640 1344 640 1344 640 1370 c 2,63,-1
 640 1434 l 1,64,-1
 384 1434 l 1,65,-1
 384 154 l 1,66,-1
 640 154 l 1,67,-1
 640 218 l 2,68,69
 640 244 640 244 659 263 c 128,-1,70
 678 282 678 282 704 282 c 2,71,-1
 960 282 l 2,72,73
 986 282 986 282 1005 263 c 128,-1,74
 1024 244 1024 244 1024 218 c 2,75,-1
 1024 -38 l 2,76,77
 1024 -64 1024 -64 1005 -83 c 128,-1,78
 986 -102 986 -102 960 -102 c 2,79,-1
 704 -102 l 2,80,81
 678 -102 678 -102 659 -83 c 128,-1,82
 640 -64 640 -64 640 -38 c 2,83,-1
 640 26 l 1,84,-1
 320 26 l 1,85,-1
 256 26 l 1,86,-1
 256 90 l 1,87,-1
 256 1690 l 1,0,-1
1344 1178 m 1,88,-1
 1344 1050 l 1,89,-1
 1472 1050 l 1,90,-1
 1472 1178 l 1,91,-1
 1344 1178 l 1,88,-1
1344 666 m 1,92,-1
 1344 538 l 1,93,-1
 1472 538 l 1,94,-1
 1472 666 l 1,95,-1
 1344 666 l 1,92,-1
EndSplineSet
Validated: 1
EndChar

StartChar: uniE01F
Encoding: 57375 57375 24
Width: 1792
VWidth: 0
HStem: -230 290<527.58 793.505> 164 426<512.332 772.519> 695 270<528.242 932.28> 1069 237<524.566 966.91>
VStem: 0 256<295.562 607.5>
LayerCount: 2
Fore
SplineSet
1131 734 m 2,0,1
 1131 755 1131 755 1130.5 768.5 c 128,-1,2
 1130 782 1130 782 1126.5 810.5 c 128,-1,3
 1123 839 1123 839 1117 859 c 128,-1,4
 1111 879 1111 879 1098.5 908 c 128,-1,5
 1086 937 1086 937 1068 957.5 c 128,-1,6
 1050 978 1050 978 1021.5 1000.5 c 128,-1,7
 993 1023 993 1023 957 1037 c 128,-1,8
 921 1051 921 1051 871 1060 c 128,-1,9
 821 1069 821 1069 761 1069 c 0,10,11
 580 1069 580 1069 346 971 c 1,12,-1
 387 873 l 1,13,14
 595 965 595 965 759 965 c 0,15,16
 813 965 813 965 856 955.5 c 128,-1,17
 899 946 899 946 926 932 c 128,-1,18
 953 918 953 918 972.5 895.5 c 128,-1,19
 992 873 992 873 1001.5 855 c 128,-1,20
 1011 837 1011 837 1016 810 c 128,-1,21
 1021 783 1021 783 1021.5 769.5 c 128,-1,22
 1022 756 1022 756 1022 734 c 2,23,-1
 1022 667 l 1,24,25
 880 695 880 695 718 695 c 0,26,27
 614 695 614 695 531.5 672 c 128,-1,28
 449 649 449 649 398.5 613.5 c 128,-1,29
 348 578 348 578 314.5 532.5 c 128,-1,30
 281 487 281 487 268.5 446 c 128,-1,31
 256 405 256 405 256 366 c 0,32,33
 256 247 256 247 354 153.5 c 128,-1,34
 452 60 452 60 607 60 c 0,35,36
 821 60 821 60 1022 247 c 1,37,-1
 1022 90 l 1,38,-1
 1325 90 l 1,39,-1
 1325 192 l 1,40,-1
 1131 192 l 1,41,-1
 1131 734 l 2,0,1
1022 392 m 1,42,43
 817 164 817 164 605 164 c 0,44,45
 513 164 513 164 443.5 223.5 c 128,-1,46
 374 283 374 283 374 364 c 0,47,48
 374 380 374 380 377 398.5 c 128,-1,49
 380 417 380 417 400 454 c 128,-1,50
 420 491 420 491 455 518.5 c 128,-1,51
 490 546 490 546 564 568 c 128,-1,52
 638 590 638 590 739 590 c 0,53,54
 878 590 878 590 1022 567 c 1,55,-1
 1022 392 l 1,42,43
1536 538 m 128,-1,57
 1536 328 1536 328 1433 152 c 0,58,59
 1329.5 -23.5 1329.5 -23.5 1154 -127 c 0,60,61
 978 -230 978 -230 768 -230 c 128,-1,62
 558 -230 558 -230 382 -127 c 0,63,64
 206.5 -23.5 206.5 -23.5 103 152 c 0,65,66
 0 328 0 328 0 538 c 128,-1,67
 0 748 0 748 103 924 c 0,68,69
 206.5 1099.5 206.5 1099.5 382 1203 c 0,70,71
 558 1306 558 1306 768 1306 c 128,-1,72
 978 1306 978 1306 1154 1203 c 0,73,74
 1329.5 1099.5 1329.5 1099.5 1433 924 c 0,75,56
 1536 748 1536 748 1536 538 c 128,-1,57
EndSplineSet
Validated: 1
EndChar

StartChar: uniE020
Encoding: 57376 57376 25
Width: 1792
VWidth: 0
HStem: -230 226<585.314 1012.46> 104 782<621.484 1004.14> 994 312<591.111 998.403>
VStem: 0 282<301.315 686.491> 400 1136<326.857 611.884> 1246 290<634.106 780.743>
LayerCount: 2
Fore
SplineSet
1166 990 m 1,0,1
 1157 952 1157 952 1153 920 c 0,2,3
 1151 906 1151 906 1144.5 889 c 128,-1,4
 1138 872 1138 872 1131 872 c 0,5,6
 1130 872 1130 872 1128.5 873.5 c 128,-1,7
 1127 875 1127 875 1125 876.5 c 128,-1,8
 1123 878 1123 878 1122 879 c 0,9,10
 1038 949 1038 949 960.5 971.5 c 128,-1,11
 883 994 883 994 803 994 c 0,12,13
 700 994 700 994 613 964.5 c 128,-1,14
 526 935 526 935 466 886 c 128,-1,15
 406 837 406 837 363.5 772 c 128,-1,16
 321 707 321 707 301.5 637 c 128,-1,17
 282 567 282 567 282 496 c 0,18,19
 282 358 282 358 345.5 244.5 c 128,-1,20
 409 131 409 131 527 63.5 c 128,-1,21
 645 -4 645 -4 794 -4 c 0,22,23
 863 -4 863 -4 933.5 12 c 128,-1,24
 1004 28 1004 28 1056 49 c 128,-1,25
 1108 70 1108 70 1166.5 103.5 c 128,-1,26
 1225 137 1225 137 1254.5 157.5 c 128,-1,27
 1284 178 1284 178 1323 207 c 1,28,-1
 1266 289 l 1,29,30
 1001 104 1001 104 805 104 c 0,31,32
 703 104 703 104 622.5 140 c 128,-1,33
 542 176 542 176 495 234 c 128,-1,34
 448 292 448 292 424 360 c 128,-1,35
 400 428 400 428 400 498 c 0,36,37
 400 570 400 570 426 638 c 128,-1,38
 452 706 452 706 501 762 c 128,-1,39
 550 818 550 818 631 852 c 128,-1,40
 712 886 712 886 813 886 c 0,41,42
 858 886 858 886 897.5 880 c 128,-1,43
 937 874 937 874 966 865 c 128,-1,44
 995 856 995 856 1020 840.5 c 128,-1,45
 1045 825 1045 825 1061.5 812 c 128,-1,46
 1078 799 1078 799 1092.5 778 c 128,-1,47
 1107 757 1107 757 1114 744.5 c 128,-1,48
 1121 732 1121 732 1128.5 711 c 128,-1,49
 1136 690 1136 690 1138 682 c 128,-1,50
 1140 674 1140 674 1144 657 c 2,51,-1
 1153 620 l 1,52,-1
 1253 635 l 1,53,54
 1246 735 1246 735 1246 779 c 0,55,56
 1246 836 1246 836 1266 979 c 1,57,-1
 1166 990 l 1,0,1
1536 538 m 128,-1,59
 1536 328 1536 328 1433 152 c 0,60,61
 1329.5 -23.5 1329.5 -23.5 1154 -127 c 0,62,63
 978 -230 978 -230 768 -230 c 128,-1,64
 558 -230 558 -230 382 -127 c 0,65,66
 206.5 -23.5 206.5 -23.5 103 152 c 0,67,68
 0 328 0 328 0 538 c 128,-1,69
 0 748 0 748 103 924 c 0,70,71
 206.5 1099.5 206.5 1099.5 382 1203 c 0,72,73
 558 1306 558 1306 768 1306 c 128,-1,74
 978 1306 978 1306 1154 1203 c 0,75,76
 1329.5 1099.5 1329.5 1099.5 1433 924 c 0,77,58
 1536 748 1536 748 1536 538 c 128,-1,59
EndSplineSet
Validated: 1
EndChar

StartChar: uniE021
Encoding: 57377 57377 26
Width: 1792
VWidth: 0
HStem: -230 192<525.257 1010.74> 51 616<339 565 674 1138> 757 298<720.388 1137.1> 1150 156<683.078 1010.26>
LayerCount: 2
Fore
SplineSet
339 757 m 1,0,-1
 339 667 l 1,1,-1
 565 667 l 1,2,-1
 565 51 l 1,3,-1
 339 51 l 1,4,-1
 339 -38 l 1,5,-1
 1138 -38 l 1,6,-1
 1138 51 l 1,7,-1
 674 51 l 1,8,-1
 674 667 l 1,9,-1
 1138 667 l 1,10,-1
 1138 757 l 1,11,-1
 674 757 l 1,12,-1
 674 857 l 2,13,14
 674 886 674 886 674.5 901 c 128,-1,15
 675 916 675 916 679 941 c 128,-1,16
 683 966 683 966 690.5 979 c 128,-1,17
 698 992 698 992 712.5 1009 c 128,-1,18
 727 1026 727 1026 748.5 1034.5 c 128,-1,19
 770 1043 770 1043 803 1049 c 128,-1,20
 836 1055 836 1055 879 1055 c 0,21,22
 1047 1055 1047 1055 1183 1025 c 1,23,-1
 1229 1120 l 1,24,25
 1041 1150 1041 1150 907 1150 c 0,26,27
 831 1150 831 1150 773.5 1140 c 128,-1,28
 716 1130 716 1130 679 1109.5 c 128,-1,29
 642 1089 642 1089 618.5 1065.5 c 128,-1,30
 595 1042 595 1042 584 1006.5 c 128,-1,31
 573 971 573 971 569 939 c 128,-1,32
 565 907 565 907 565 863 c 2,33,-1
 565 757 l 1,34,-1
 339 757 l 1,0,-1
1536 538 m 128,-1,36
 1536 328 1536 328 1433 152 c 0,37,38
 1329.5 -23.5 1329.5 -23.5 1154 -127 c 0,39,40
 978 -230 978 -230 768 -230 c 128,-1,41
 558 -230 558 -230 382 -127 c 0,42,43
 206.5 -23.5 206.5 -23.5 103 152 c 0,44,45
 0 328 0 328 0 538 c 128,-1,46
 0 748 0 748 103 924 c 0,47,48
 206.5 1099.5 206.5 1099.5 382 1203 c 0,49,50
 558 1306 558 1306 768 1306 c 128,-1,51
 978 1306 978 1306 1154 1203 c 0,52,53
 1329.5 1099.5 1329.5 1099.5 1433 924 c 0,54,35
 1536 748 1536 748 1536 538 c 128,-1,36
EndSplineSet
Validated: 1
EndChar

StartChar: uniE022
Encoding: 57378 57378 27
Width: 1792
VWidth: 0
HStem: -230 154<549.089 629 889 973> 424 299<396 571 674 915 1018 1191> 1207 99<616 700 960 1010.74>
LayerCount: 2
Fore
SplineSet
616 1207 m 1,0,-1
 595 840 l 1,1,-1
 396 840 l 1,2,-1
 396 723 l 1,3,-1
 589 723 l 1,4,-1
 571 424 l 1,5,-1
 396 424 l 1,6,-1
 396 307 l 1,7,-1
 564 307 l 1,8,-1
 545 -76 l 1,9,-1
 629 -76 l 1,10,-1
 648 307 l 1,11,-1
 910 307 l 1,12,-1
 889 -76 l 1,13,-1
 973 -76 l 1,14,-1
 994 307 l 1,15,-1
 1191 307 l 1,16,-1
 1191 424 l 1,17,-1
 1000 424 l 1,18,-1
 1018 723 l 1,19,-1
 1191 723 l 1,20,-1
 1191 840 l 1,21,-1
 1023 840 l 1,22,-1
 1044 1207 l 1,23,-1
 960 1207 l 1,24,-1
 939 840 l 1,25,-1
 679 840 l 1,26,-1
 700 1207 l 1,27,-1
 616 1207 l 1,0,-1
933 723 m 1,28,-1
 915 424 l 1,29,-1
 656 424 l 1,30,-1
 674 723 l 1,31,-1
 933 723 l 1,28,-1
1536 538 m 128,-1,33
 1536 328 1536 328 1433 152 c 0,34,35
 1329.5 -23.5 1329.5 -23.5 1154 -127 c 0,36,37
 978 -230 978 -230 768 -230 c 128,-1,38
 558 -230 558 -230 382 -127 c 0,39,40
 206.5 -23.5 206.5 -23.5 103 152 c 0,41,42
 0 328 0 328 0 538 c 128,-1,43
 0 748 0 748 103 924 c 0,44,45
 206.5 1099.5 206.5 1099.5 382 1203 c 0,46,47
 558 1306 558 1306 768 1306 c 128,-1,48
 978 1306 978 1306 1154 1203 c 0,49,50
 1329.5 1099.5 1329.5 1099.5 1433 924 c 0,51,32
 1536 748 1536 748 1536 538 c 128,-1,33
EndSplineSet
Validated: 1
EndChar

StartChar: uniE023
Encoding: 57379 57379 28
Width: 1792
VWidth: 0
HStem: -230 384<525.257 589 758 956.774> 944 362<524.262 1046.37>
VStem: 467 291<238 796.156> 589 169<154 238> 847 291<238 781.888> 958 180<154 238> 1227 309<295.257 780.743>
LayerCount: 2
Fore
SplineSet
256 925 m 1,0,-1
 256 840 l 1,1,-1
 378 840 l 1,2,-1
 378 238 l 1,3,-1
 256 238 l 1,4,-1
 256 154 l 1,5,-1
 589 154 l 1,6,-1
 589 238 l 1,7,-1
 467 238 l 1,8,-1
 467 754 l 1,9,10
 549 855 549 855 639 855 c 0,11,12
 672 855 672 855 696 841 c 128,-1,13
 720 827 720 827 731.5 808.5 c 128,-1,14
 743 790 743 790 749.5 759 c 128,-1,15
 756 728 756 728 757 708.5 c 128,-1,16
 758 689 758 689 758 657 c 2,17,-1
 758 649 l 1,18,-1
 758 154 l 1,19,-1
 958 154 l 1,20,-1
 958 238 l 1,21,-1
 847 238 l 1,22,-1
 847 736 l 1,23,24
 932 855 932 855 1023 855 c 0,25,26
 1051 855 1051 855 1071 847 c 128,-1,27
 1091 839 1091 839 1103.5 822 c 128,-1,28
 1116 805 1116 805 1123.5 789 c 128,-1,29
 1131 773 1131 773 1134 744 c 128,-1,30
 1137 715 1137 715 1137.5 697 c 128,-1,31
 1138 679 1138 679 1138 646 c 2,32,-1
 1138 641 l 1,33,-1
 1138 154 l 1,34,-1
 1329 154 l 1,35,-1
 1329 238 l 1,36,-1
 1227 238 l 1,37,-1
 1227 641 l 2,38,39
 1227 740 1227 740 1217.5 784 c 128,-1,40
 1208 828 1208 828 1181 867 c 1,41,42
 1158 902 1158 902 1113 923 c 128,-1,43
 1068 944 1068 944 1021 944 c 0,44,45
 913 944 913 944 817 831 c 1,46,47
 792 884 792 884 743.5 914 c 128,-1,48
 695 944 695 944 638 944 c 0,49,50
 600 944 600 944 561 928.5 c 128,-1,51
 522 913 522 913 507 901.5 c 128,-1,52
 492 890 492 890 484 882 c 1,53,-1
 460 862 l 1,54,-1
 460 925 l 1,55,-1
 256 925 l 1,0,-1
1536 538 m 128,-1,57
 1536 328 1536 328 1433 152 c 0,58,59
 1329.5 -23.5 1329.5 -23.5 1154 -127 c 0,60,61
 978 -230 978 -230 768 -230 c 128,-1,62
 558 -230 558 -230 382 -127 c 0,63,64
 206.5 -23.5 206.5 -23.5 103 152 c 0,65,66
 0 328 0 328 0 538 c 128,-1,67
 0 748 0 748 103 924 c 0,68,69
 206.5 1099.5 206.5 1099.5 382 1203 c 0,70,71
 558 1306 558 1306 768 1306 c 128,-1,72
 978 1306 978 1306 1154 1203 c 0,73,74
 1329.5 1099.5 1329.5 1099.5 1433 924 c 0,75,56
 1536 748 1536 748 1536 538 c 128,-1,57
EndSplineSet
Validated: 1
EndChar

StartChar: uniE024
Encoding: 57380 57380 29
Width: 1792
VWidth: 0
HStem: -230 231<698.5 1011.31> 85 310<871.266 1081.22> 732 310<485.207 695.979> 1126 180<524.962 837.5>
VStem: 0 337<468.5 941.5> 433 314<784.459 989.32> 819 313<136.907 342.981> 1229 307<182.5 607.5>
LayerCount: 2
Fore
SplineSet
975 479 m 0,0,1
 858 479 858 479 790 404 c 128,-1,2
 722 329 722 329 722 239 c 128,-1,3
 722 149 722 149 790.5 75 c 128,-1,4
 859 1 859 1 975 1 c 0,5,6
 1090 1 1090 1 1159.5 74 c 128,-1,7
 1229 147 1229 147 1229 239 c 0,8,9
 1229 297 1229 297 1201 350.5 c 128,-1,10
 1173 404 1173 404 1113.5 441.5 c 128,-1,11
 1054 479 1054 479 975 479 c 0,0,1
975 395 m 0,12,13
 1048 395 1048 395 1090 348.5 c 128,-1,14
 1132 302 1132 302 1132 241 c 0,15,16
 1132 179 1132 179 1089.5 132 c 128,-1,17
 1047 85 1047 85 975 85 c 0,18,19
 905 85 905 85 862 131 c 128,-1,20
 819 177 819 177 819 241 c 0,21,22
 819 303 819 303 861.5 349 c 128,-1,23
 904 395 904 395 975 395 c 0,12,13
589 1126 m 0,24,25
 474 1126 474 1126 405.5 1051.5 c 128,-1,26
 337 977 337 977 337 886 c 0,27,28
 337 793 337 793 406.5 720.5 c 128,-1,29
 476 648 476 648 589 648 c 0,30,31
 704 648 704 648 774 720.5 c 128,-1,32
 844 793 844 793 844 886 c 128,-1,33
 844 979 844 979 774.5 1052.5 c 128,-1,34
 705 1126 705 1126 589 1126 c 0,24,25
591 1042 m 0,35,36
 662 1042 662 1042 704.5 995.5 c 128,-1,37
 747 949 747 949 747 886 c 128,-1,38
 747 823 747 823 704 777.5 c 128,-1,39
 661 732 661 732 591 732 c 0,40,41
 520 732 520 732 476.5 778.5 c 128,-1,42
 433 825 433 825 433 886 c 128,-1,43
 433 947 433 947 475.5 994.5 c 128,-1,44
 518 1042 518 1042 591 1042 c 0,35,36
1139 779 m 1,45,-1
 412 456 l 1,46,-1
 448 372 l 1,47,-1
 1175 694 l 1,48,-1
 1139 779 l 1,45,-1
1536 538 m 128,-1,50
 1536 328 1536 328 1433 152 c 0,51,52
 1329.5 -23.5 1329.5 -23.5 1154 -127 c 0,53,54
 978 -230 978 -230 768 -230 c 128,-1,55
 558 -230 558 -230 382 -127 c 0,56,57
 206.5 -23.5 206.5 -23.5 103 152 c 0,58,59
 0 328 0 328 0 538 c 128,-1,60
 0 748 0 748 103 924 c 0,61,62
 206.5 1099.5 206.5 1099.5 382 1203 c 0,63,64
 558 1306 558 1306 768 1306 c 128,-1,65
 978 1306 978 1306 1154 1203 c 0,66,67
 1329.5 1099.5 1329.5 1099.5 1433 924 c 0,68,49
 1536 748 1536 748 1536 538 c 128,-1,50
EndSplineSet
Validated: 1
EndChar

StartChar: uniE025
Encoding: 57381 57381 30
Width: 1792
VWidth: 0
HStem: -230 320<525.257 1010.74> 999 307<646.629 1126.5>
VStem: 0 536<295.257 780.743>
LayerCount: 2
Fore
SplineSet
298 971 m 1,0,-1
 298 874 l 1,1,-1
 536 874 l 1,2,-1
 536 186 l 1,3,-1
 282 186 l 1,4,-1
 282 90 l 1,5,-1
 1027 90 l 1,6,-1
 1027 186 l 1,7,-1
 638 186 l 1,8,-1
 638 635 l 1,9,10
 673 674 673 674 692 694 c 128,-1,11
 711 714 711 714 759.5 759 c 128,-1,12
 808 804 808 804 847 829 c 128,-1,13
 886 854 886 854 941 875.5 c 128,-1,14
 996 897 996 897 1046 897 c 0,15,16
 1083 897 1083 897 1111.5 882.5 c 128,-1,17
 1140 868 1140 868 1149.5 856.5 c 128,-1,18
 1159 845 1159 845 1175 821 c 1,19,20
 1175 815 1175 815 1183 807 c 1,21,-1
 1291 887 l 1,22,23
 1270 912 1270 912 1253.5 927.5 c 128,-1,24
 1237 943 1237 943 1209 962 c 128,-1,25
 1181 981 1181 981 1144.5 990 c 128,-1,26
 1108 999 1108 999 1062 999 c 0,27,28
 1006 999 1006 999 950.5 982 c 128,-1,29
 895 965 895 965 856.5 945 c 128,-1,30
 818 925 818 925 769.5 886 c 128,-1,31
 721 847 721 847 700 827 c 128,-1,32
 679 807 679 807 638 766 c 1,33,-1
 638 971 l 1,34,-1
 298 971 l 1,0,-1
1536 538 m 128,-1,36
 1536 328 1536 328 1433 152 c 0,37,38
 1329.5 -23.5 1329.5 -23.5 1154 -127 c 0,39,40
 978 -230 978 -230 768 -230 c 128,-1,41
 558 -230 558 -230 382 -127 c 0,42,43
 206.5 -23.5 206.5 -23.5 103 152 c 0,44,45
 0 328 0 328 0 538 c 128,-1,46
 0 748 0 748 103 924 c 0,47,48
 206.5 1099.5 206.5 1099.5 382 1203 c 0,49,50
 558 1306 558 1306 768 1306 c 128,-1,51
 978 1306 978 1306 1154 1203 c 0,52,53
 1329.5 1099.5 1329.5 1099.5 1433 924 c 0,54,35
 1536 748 1536 748 1536 538 c 128,-1,36
EndSplineSet
Validated: 1
EndChar

StartChar: uniE001
Encoding: 57345 57345 31
Width: 1792
VWidth: 0
VStem: 768 256<-108.389 614 666 1403.08> 1155 256<-109.389 1387.39>
LayerCount: 2
Fore
SplineSet
20 1410 m 0,0,1
 32 1410 32 1410 45 1395 c 1,2,-1
 755 685 l 2,3,4
 764 676 764 676 768 666 c 1,5,-1
 768 1344 l 2,6,7
 768 1371 768 1371 787 1389 c 0,8,9
 806 1408 806 1408 832 1408 c 2,10,-1
 960 1408 l 2,11,12
 986 1408 986 1408 1005 1389 c 0,13,14
 1024 1371 1024 1371 1024 1344 c 2,15,-1
 1024 -64 l 2,16,17
 1024 -90 1024 -90 1005 -109 c 1,18,19
 984 -128 984 -128 960 -128 c 2,20,-1
 832 -128 l 2,21,22
 808 -128 808 -128 787 -109 c 1,23,24
 768 -90 768 -90 768 -64 c 2,25,-1
 768 614 l 1,26,27
 764 606 764 606 755 595 c 1,28,-1
 45 -115 l 1,29,30
 25 -133 25 -133 13 -128 c 0,31,32
 0 -122 0 -122 0 -96 c 2,33,-1
 0 1376 l 2,34,35
 0 1402 0 1402 13 1408 c 0,36,37
 17 1410 17 1410 20 1410 c 0,0,1
1219 1407 m 2,38,-1
 1347 1407 l 2,39,40
 1373 1407 1373 1407 1392 1388 c 128,-1,41
 1411 1369 1411 1369 1411 1343 c 2,42,-1
 1411 -65 l 2,43,44
 1411 -91 1411 -91 1392 -110 c 128,-1,45
 1373 -129 1373 -129 1347 -129 c 2,46,-1
 1219 -129 l 2,47,48
 1193 -129 1193 -129 1174 -110 c 128,-1,49
 1155 -91 1155 -91 1155 -65 c 2,50,-1
 1155 1343 l 2,51,52
 1155 1369 1155 1369 1174 1388 c 128,-1,53
 1193 1407 1193 1407 1219 1407 c 2,38,-1
EndSplineSet
Validated: 1
EndChar

StartChar: uniE03B
Encoding: 57403 57403 32
Width: 1792
VWidth: 0
LayerCount: 2
Fore
SplineSet
128 1152 m 1,0,-1
 1408 1152 l 1,1,-1
 1408 384 l 1,2,-1
 128 384 l 1,3,-1
 128 1152 l 1,0,-1
EndSplineSet
EndChar

StartChar: uniE03C
Encoding: 57404 57404 33
Width: 1792
VWidth: 0
VStem: 1696 224<157.348 773 816 1417.48>
LayerCount: 2
Fore
SplineSet
1063 166 m 2,0,1
 1047 150 1047 150 1035 155 c 1,2,3
 1024 161 1024 161 1024 182 c 2,4,-1
 1024 1407 l 2,5,6
 1024 1428 1024 1428 1035 1433 c 128,-1,7
 1046 1438 1046 1438 1063 1423 c 2,8,-1
 1685 832 l 1,9,10
 1693 822 1693 822 1696 816 c 1,11,-1
 1696 1380 l 2,12,13
 1696 1401 1696 1401 1713 1418 c 1,14,15
 1729.5 1433 1729.5 1433 1752 1433 c 2,16,-1
 1864 1433 l 2,17,18
 1886.5 1433 1886.5 1433 1903 1418 c 1,19,20
 1920 1401 1920 1401 1920 1380 c 2,21,-1
 1920 208 l 2,22,23
 1920 188 1920 188 1903 171 c 0,24,25
 1887 155 1887 155 1864 155 c 2,26,-1
 1752 155 l 2,27,28
 1729 155 1729 155 1713 171 c 0,29,30
 1696 188 1696 188 1696 208 c 2,31,-1
 1696 773 l 1,32,33
 1693 767 1693 767 1685 757 c 1,34,-1
 1063 166 l 2,0,1
EndSplineSet
Validated: 1
EndChar

StartChar: uniE03D
Encoding: 57405 57405 34
Width: 1792
VWidth: 0
Flags: W
HStem: -102 256<256 384> 666 256<256 640>
VStem: 0 256<154 666>
LayerCount: 2
Fore
SplineSet
128 922 m 2,0,-1
 640 922 l 1,1,-1
 640 666 l 1,2,-1
 256 666 l 1,3,-1
 256 239 l 1,4,-1
 256 154 l 1,5,-1
 384 154 l 1,6,-1
 384 346 l 1,7,-1
 704 26 l 1,8,-1
 384 -294 l 1,9,-1
 384 -102 l 1,10,-1
 128 -102 l 2,11,12
 102 -102 102 -102 79 -92 c 0,13,14
 55 -82 55 -82 38 -64 c 1,15,16
 20 -47 20 -47 10 -23 c 0,17,18
 0 -0 0 -0 0 26 c 2,19,-1
 0 239 l 1,20,-1
 0 794 l 2,21,22
 0 820 0 820 10 843 c 0,23,24
 20 867 20 867 38 884 c 1,25,26
 55 902 55 902 79 912 c 0,27,28
 102 922 102 922 128 922 c 2,0,-1
EndSplineSet
Validated: 1
EndChar

StartChar: uniE03E
Encoding: 57406 57406 35
Width: 1792
VWidth: 0
LayerCount: 2
Fore
SplineSet
87 1667 m 2,0,-1
 1407 1667 l 2,1,2
 1427 1667 1427 1667 1442 1666 c 0,3,4
 1458 1666 1458 1666 1469 1664 c 128,-1,5
 1480 1662 1480 1662 1487 1661 c 0,6,7
 1493 1660 1493 1660 1500 1656 c 128,-1,8
 1507 1652 1507 1652 1508 1651 c 0,9,10
 1510 1650 1510 1650 1515 1645 c 0,11,12
 1521 1639 1521 1639 1521 1639 c 0,13,14
 1536 1629 1536 1629 1536 1568 c 2,15,-1
 1527 -29 l 2,16,17
 1527 -69 1527 -69 1499 -97 c 0,18,19
 1482 -114 1482 -114 1470 -121 c 128,-1,20
 1458 -128 1458 -128 1440 -128 c 2,21,-1
 96 -128 l 2,22,23
 56 -128 56 -128 28 -100 c 128,-1,24
 -0 -72 -0 -72 0 -32 c 2,25,-1
 0 1568 l 2,26,27
 0 1586 0 1586 1 1595 c 0,28,29
 1 1601 1 1601 6 1617 c 0,30,31
 10 1630 10 1630 19 1639 c 0,32,33
 46 1667 46 1667 87 1667 c 2,0,-1
128 1536 m 1,34,-1
 128 1152 l 1,35,-1
 1408 1152 l 1,36,-1
 1408 1536 l 1,37,-1
 128 1536 l 1,34,-1
128 1088 m 1,38,-1
 128 448 l 1,39,-1
 1408 448 l 1,40,-1
 1408 1088 l 1,41,-1
 128 1088 l 1,38,-1
128 384 m 1,42,-1
 128 0 l 1,43,-1
 1408 0 l 1,44,-1
 1408 384 l 1,45,-1
 128 384 l 1,42,-1
EndSplineSet
EndChar

StartChar: uniE055
Encoding: 57429 57429 36
Width: 1792
VWidth: 0
LayerCount: 2
Fore
SplineSet
0 1178 m 1,0,-1
 1152 922 l 1,1,-1
 1152 -358 l 1,2,-1
 0 154 l 1,3,-1
 0 1178 l 1,0,-1
EndSplineSet
Validated: 1
EndChar

StartChar: uniE056
Encoding: 57430 57430 37
Width: 1792
VWidth: 0
LayerCount: 2
Fore
SplineSet
0 154 m 1,0,-1
 896 730 l 1,1,-1
 1792 474 l 1,2,-1
 1152 -358 l 1,3,-1
 0 154 l 1,0,-1
EndSplineSet
Validated: 1
EndChar

StartChar: uniE057
Encoding: 57431 57431 38
Width: 1792
VWidth: 0
VStem: 1152 640<474 922>
LayerCount: 2
Fore
SplineSet
1152 922 m 1,0,-1
 1792 1306 l 1,1,-1
 1792 474 l 1,2,-1
 1152 -358 l 1,3,-1
 1152 922 l 1,0,-1
EndSplineSet
Validated: 1
EndChar

StartChar: uniE058
Encoding: 57432 57432 39
Width: 1792
VWidth: 0
LayerCount: 2
Fore
SplineSet
0 1178 m 1,0,-1
 896 1434 l 1,1,-1
 896 730 l 1,2,-1
 0 154 l 1,3,-1
 0 1178 l 1,0,-1
EndSplineSet
Validated: 1
EndChar

StartChar: uniE059
Encoding: 57433 57433 40
Width: 1792
VWidth: 0
LayerCount: 2
Fore
SplineSet
896 1434 m 1,0,-1
 1792 1306 l 1,1,-1
 1792 474 l 1,2,-1
 896 730 l 1,3,-1
 896 1434 l 1,0,-1
EndSplineSet
Validated: 1
EndChar

StartChar: uniE05A
Encoding: 57434 57434 41
Width: 1792
VWidth: 0
HStem: 922 512
LayerCount: 2
Fore
SplineSet
0 1178 m 1,0,-1
 896 1434 l 1,1,-1
 1792 1306 l 1,2,-1
 1152 922 l 1,3,-1
 0 1178 l 1,0,-1
EndSplineSet
Validated: 1
EndChar

StartChar: uniE042
Encoding: 57410 57410 42
Width: 1792
VWidth: 0
HStem: -230 384<258.891 384 512 640 1152 1277.11> 282 256<1152 1280> 538 299<640 872.111> 922 384<258.891 384 512 935.266>
VStem: 0 256<154 922> 384 128<154 922> 640 280<587.179 797.821> 1024 128<549.188 666> 1280 256<154 282 538 666>
LayerCount: 2
Fore
SplineSet
288 1306 m 2,0,-1
 1248 1306 l 2,1,2
 1366.5 1306 1366.5 1306 1452 1222 c 1,3,4
 1536 1136.5 1536 1136.5 1536 1018 c 2,5,-1
 1536 58 l 2,6,7
 1536 -60.5 1536 -60.5 1452 -146 c 1,8,9
 1366.5 -230 1366.5 -230 1248 -230 c 2,10,-1
 288 -230 l 2,11,12
 169.5 -230 169.5 -230 84 -146 c 1,13,14
 0 -60.5 0 -60.5 0 58 c 2,15,-1
 0 1018 l 2,16,17
 0 1136.5 0 1136.5 84 1222 c 1,18,19
 169.5 1306 169.5 1306 288 1306 c 2,0,-1
256 922 m 1,20,-1
 256 154 l 1,21,-1
 384 154 l 1,22,-1
 384 922 l 1,23,-1
 256 922 l 1,20,-1
512 922 m 1,24,-1
 512 154 l 1,25,-1
 640 154 l 1,26,-1
 640 453 l 1,27,-1
 775 453 l 2,28,29
 888 453 888 453 961 521 c 0,30,31
 1024 580 1024 580 1024 693 c 128,-1,32
 1024 806 1024 806 961 863 c 0,33,34
 897 922 897 922 775 922 c 2,35,-1
 512 922 l 1,24,-1
640 837 m 1,36,-1
 775 837 l 2,37,38
 844 837 844 837 882 799 c 128,-1,39
 920 761 920 761 920 693 c 0,40,41
 920 624 920 624 882 586 c 0,42,43
 834 538 834 538 775 538 c 2,44,-1
 640 538 l 1,45,-1
 640 837 l 1,36,-1
1152 666 m 1,46,-1
 1152 538 l 1,47,-1
 1280 538 l 1,48,-1
 1280 666 l 1,49,-1
 1152 666 l 1,46,-1
1152 282 m 1,50,-1
 1152 154 l 1,51,-1
 1280 154 l 1,52,-1
 1280 282 l 1,53,-1
 1152 282 l 1,50,-1
EndSplineSet
Validated: 1
EndChar

StartChar: uniE043
Encoding: 57411 57411 43
Width: 1792
VWidth: 0
HStem: -358 232<331.26 503.843> -154 218<684.507 1135.8> 1032 78<186.013 263.988> 1083 220<684.507 1135.8> 1268 166<1334.33 1474.72>
VStem: 186 78<1032.01 1109.99> 301 233<-327.843 -156.157> 1321 167<1281.04 1420.96>
LayerCount: 2
Fore
SplineSet
910 64 m 128,-1,1
 1127 64 1127 64 1310.5 136 c 128,-1,2
 1494 208 1494 208 1596 327 c 1,3,4
 1518 113 1518 113 1331 -20.5 c 128,-1,5
 1144 -154 1144 -154 910 -154 c 0,6,7
 677 -154 677 -154 489.5 -20 c 128,-1,8
 302 114 302 114 225 327 c 1,9,10
 328 208 328 208 510.5 136 c 128,-1,0
 693 64 693 64 910 64 c 128,-1,1
910 1083 m 0,11,12
 693 1083 693 1083 510 1011.5 c 128,-1,13
 327 940 327 940 225 821 c 1,14,15
 302 1035 302 1035 489.5 1169 c 128,-1,16
 677 1303 677 1303 910 1303 c 0,17,18
 1144 1303 1144 1303 1331 1169 c 128,-1,19
 1518 1035 1518 1035 1596 821 c 1,20,21
 1494 940 1494 940 1311 1011.5 c 128,-1,22
 1128 1083 1128 1083 910 1083 c 0,11,12
186 1071 m 128,-1,24
 186 1087 186 1087 197.5 1098.5 c 128,-1,25
 209 1110 209 1110 225 1110 c 0,26,27
 242 1110 242 1110 253 1099 c 128,-1,28
 264 1088 264 1088 264 1071 c 0,29,30
 264 1055 264 1055 252.5 1043.5 c 128,-1,31
 241 1032 241 1032 225 1032 c 128,-1,32
 209 1032 209 1032 197.5 1043.5 c 128,-1,23
 186 1055 186 1055 186 1071 c 128,-1,24
1321 1351 m 128,-1,34
 1321 1385 1321 1385 1345.5 1409.5 c 128,-1,35
 1370 1434 1370 1434 1405 1434 c 0,36,37
 1439 1434 1439 1434 1463.5 1409.5 c 128,-1,38
 1488 1385 1488 1385 1488 1351 c 128,-1,39
 1488 1317 1488 1317 1463.5 1292.5 c 128,-1,40
 1439 1268 1439 1268 1405 1268 c 0,41,42
 1370 1268 1370 1268 1345.5 1292.5 c 128,-1,33
 1321 1317 1321 1317 1321 1351 c 128,-1,34
301 -242 m 128,-1,44
 301 -194 301 -194 335 -160 c 128,-1,45
 369 -126 369 -126 418 -126 c 0,46,47
 466 -126 466 -126 500 -160 c 128,-1,48
 534 -194 534 -194 534 -242 c 128,-1,49
 534 -290 534 -290 500 -324 c 128,-1,50
 466 -358 466 -358 418 -358 c 0,51,52
 369 -358 369 -358 335 -324 c 128,-1,43
 301 -290 301 -290 301 -242 c 128,-1,44
EndSplineSet
Validated: 1
EndChar

StartChar: uniE026
Encoding: 57382 57382 44
Width: 1792
VWidth: 0
HStem: -230 385<525.257 1010.74> 411 895<525.257 1010.74>
LayerCount: 2
Fore
SplineSet
1216 219 m 1,0,-1
 1216 347 l 1,1,2
 1210 379 1210 379 1197 392 c 0,3,4
 1178 411 1178 411 1152 411 c 2,5,-1
 384 411 l 2,6,7
 358 411 358 411 339 392 c 0,8,9
 333 386 333 386 328.5 375 c 128,-1,10
 324 364 324 364 322 356 c 2,11,-1
 320 347 l 1,12,-1
 320 219 l 1,13,14
 326 187 326 187 339 174 c 0,15,16
 358 155 358 155 384 155 c 2,17,-1
 1152 155 l 2,18,19
 1178 155 1178 155 1197 174 c 0,20,21
 1203 180 1203 180 1207.5 191 c 128,-1,22
 1212 202 1212 202 1214 210 c 2,23,-1
 1216 219 l 1,0,-1
1536 538 m 128,-1,25
 1536 328 1536 328 1433 152 c 128,-1,26
 1330 -24 1330 -24 1154 -127 c 128,-1,27
 978 -230 978 -230 768 -230 c 128,-1,28
 558 -230 558 -230 382 -127 c 128,-1,29
 206 -24 206 -24 103 152 c 128,-1,30
 0 328 0 328 0 538 c 128,-1,31
 0 748 0 748 103 924 c 128,-1,32
 206 1100 206 1100 382 1203 c 128,-1,33
 558 1306 558 1306 768 1306 c 128,-1,34
 978 1306 978 1306 1154 1203 c 128,-1,35
 1330 1100 1330 1100 1433 924 c 128,-1,24
 1536 748 1536 748 1536 538 c 128,-1,25
EndSplineSet
EndChar
